<svg
  viewBox="0 0 1024 1024"
  version="1.1"
  xmlns="http://www.w3.org/2000/svg"
>
  <path
    d="M896 138.666667H128c-40.533333 0-74.666667 34.133333-74.666667 74.666666v597.333334c0 40.533333 34.133333 74.666667 74.666667 74.666666h768c40.533333 0 74.666667-34.133333 74.666667-74.666666V213.333333c0-40.533333-34.133333-74.666667-74.666667-74.666666zM424.533333 535.466667l-149.333333 128c-6.4 6.4-14.933333 8.533333-21.333333 8.533333-8.533333 0-17.066667-4.266667-23.466667-10.666667-10.666667-12.8-8.533333-34.133333 4.266667-44.8l123.733333-102.4-121.6-104.533333c-14.933333-10.666667-14.933333-32-4.266667-44.8 10.666667-14.933333 32-14.933333 44.8-4.266667l147.2 128c6.4 4.266667 10.666667 14.933333 10.666667 23.466667s-4.266667 17.066667-10.666667 23.466667zM768 714.666667H490.666667c-17.066667 0-32-14.933333-32-32s14.933333-32 32-32h277.333333c17.066667 0 32 14.933333 32 32s-14.933333 32-32 32z"
    fill="#333333"
  />
</svg>
